# xmcd
#
# Track frame offsets:
#	150
#	14735
#	32890
#	48915
#	60350
#	75955
#	93087
#	106655
#	125010
#	137975
#	153340
#	169125
#
# Disc length: 2491 seconds
#
# Revision: 1
# Processed by: cddbd v1.4PL0 Copyright (c) Steve Scherf et al.
# Submitted via: audiograbber 1.81.02
#
DISCID=8f09b90c
DTITLE=Georges Hamel - Il se souvient du temps
DYEAR=1996
DGENRE=Country
TTITLE0=Il se souvient du temps
TTITLE1=Quand je chante pour vous
TTITLE2=Les amants de la forêt sauvage
TTITLE3=Qui es-tu
TTITLE4=Je passe encore devant chez-toi
TTITLE5=Mon épaule pour pleurer
TTITLE6=Je chanterai pour toi 
TTITLE7=Le goût de tes lèvres
TTITLE8=À mes parents
TTITLE9=Comme un tour de magie
TTITLE10=La routine tue l'amour
TTITLE11=Un ange veille
EXTD=
EXTT0=
EXTT1=
EXTT2=
EXTT3=
EXTT4=
EXTT5=
EXTT6=
EXTT7=
EXTT8=
EXTT9=
EXTT10=
EXTT11=
PLAYORDER=
